HIERARCHY
ROOT Hips
{
 OFFSET 0.000000 0.000000 0.000000
 CHANNELS 6 Xposition Yposition Zposition Yrotation Xrotation Zrotation
 JOINT Chest
 {
  OFFSET 0.000000 9.588913 -0.003946
  CHANNELS 3 Yrotation Xrotation Zrotation
  JOINT Chest2
  {
   OFFSET 0.000000 9.541882 0.008053
   CHANNELS 3 Yrotation Xrotation Zrotation
   JOINT Chest3
   {
    OFFSET 0.000000 9.501360 0.000000
    CHANNELS 3 Yrotation Xrotation Zrotation
    JOINT Chest4
    {
     OFFSET 0.000000 9.491660 0.000000
     CHANNELS 3 Yrotation Xrotation Zrotation
     JOINT Neck
     {
      OFFSET 0.000000 14.331917 0.000000
      CHANNELS 3 Yrotation Xrotation Zrotation
      JOINT Head
      {
       OFFSET 0.000000 8.884799 0.017034
       CHANNELS 3 Yrotation Xrotation Zrotation
       End Site
       {
        OFFSET 0.000000 16.896195 0.008993
       }
      }
     }
     JOINT RightCollar
     {
      OFFSET -2.923010 9.499495 0.000000
      CHANNELS 3 Yrotation Xrotation Zrotation
      JOINT RightShoulder
      {
       OFFSET -13.795216 0.000000 0.000000
       CHANNELS 3 Yrotation Xrotation Zrotation
       JOINT RightElbow
       {
        OFFSET -30.272209 0.000000 0.000000
        CHANNELS 3 Yrotation Xrotation Zrotation
        JOINT RightWrist
        {
         OFFSET -24.478199 0.000000 0.000000
         CHANNELS 3 Yrotation Xrotation Zrotation
         End Site
         {
          OFFSET -18.090752 0.000000 0.000000
         }
        }
       }
      }
     }
     JOINT LeftCollar
     {
      OFFSET 2.923010 9.499495 0.000000
      CHANNELS 3 Yrotation Xrotation Zrotation
      JOINT LeftShoulder
      {
       OFFSET 13.795216 0.000000 0.000000
       CHANNELS 3 Yrotation Xrotation Zrotation
       JOINT LeftElbow
       {
        OFFSET 30.272209 0.000000 0.000000
        CHANNELS 3 Yrotation Xrotation Zrotation
        JOINT LeftWrist
        {
         OFFSET 24.478199 0.000000 0.000000
         CHANNELS 3 Yrotation Xrotation Zrotation
         End Site
         {
          OFFSET 18.090752 0.000000 0.000000
         }
        }
       }
      }
     }
    }
   }
  }
 }
 JOINT RightHip
 {
  OFFSET -7.826875 0.019532 0.001973
  CHANNELS 3 Yrotation Xrotation Zrotation
  JOINT RightKnee
  {
   OFFSET 0.000000 -40.546152 -0.001885
   CHANNELS 3 Yrotation Xrotation Zrotation
   JOINT RightAnkle
   {
    OFFSET 0.000000 -39.417092 -0.003189
    CHANNELS 3 Yrotation Xrotation Zrotation
    JOINT RightToe
    {
     OFFSET 0.000000 -7.579396 17.243563
     CHANNELS 3 Yrotation Xrotation Zrotation
     End Site
     {
      OFFSET 0.000000 -1.500329 6.694466
     }
    }
   }
  }
 }
 JOINT LeftHip
 {
  OFFSET 7.826875 0.019532 0.001973
  CHANNELS 3 Yrotation Xrotation Zrotation
  JOINT LeftKnee
  {
   OFFSET 0.000000 -40.546152 -0.001885
   CHANNELS 3 Yrotation Xrotation Zrotation
   JOINT LeftAnkle
   {
    OFFSET 0.000000 -39.417092 -0.003189
    CHANNELS 3 Yrotation Xrotation Zrotation
    JOINT LeftToe
    {
     OFFSET 0.000000 -7.579396 17.243563
     CHANNELS 3 Yrotation Xrotation Zrotation
     End Site
     {
      OFFSET 0.000000 -1.500329 6.694466
     }
    }
   }
  }
 }
}
MOTION
Frames: 5
Frame Time: 0.008333
-2.467506 89.169911 11.386685 -50.655477 -3.779746 -1.770849 -1.440198 0.376125 0.426403 -0.808459 0.209985 0.259048 -1.010427 0.263050 0.323346 -0.808459 0.209985 0.259048 -8.591796 24.220618 1.365466 -9.846875 0.968226 3.488871 -5.368227 -0.195127 -2.557219 -0.489214 6.559336 88.939822 18.018728 7.351691 7.082389 1.240248 -1.625917 -0.552674 6.139263 -0.436874 1.676696 -5.839707 0.607263 -89.389831 0.755471 8.612330 -0.510503 -0.385031 -3.976175 -1.667819 -1.118559 6.279008 1.750754 -3.058438 0.887309 -0.494162 0.432220 -2.514581 0.566166 0.014347 0.100509 0.129132 7.273132 9.252568 1.367185 4.789871 0.407744 1.247169 4.800852 -5.907950 -2.127670 -0.021521 0.074685 -0.019515
-2.407087 89.168222 11.358063 -50.620428 -3.777607 -1.757473 -1.443763 0.361372 0.425859 -0.809227 0.201948 0.259769 -1.011391 0.253007 0.324265 -0.809227 0.201948 0.259769 -8.572743 24.253630 1.344523 -9.820351 1.005422 3.460944 -5.378239 -0.217529 -2.529383 -0.320121 6.468461 89.109979 17.174429 7.250606 6.750771 1.274909 -1.619550 -0.530574 6.132157 -0.421687 1.667503 -5.886024 0.600850 -89.398547 0.764138 8.646969 -0.513097 -0.384581 -3.971941 -1.667915 -1.103015 6.223371 1.736530 -3.048474 0.918973 -0.500641 0.401523 -2.521235 0.545907 0.013111 0.099589 0.126459 7.217105 9.194552 1.328882 4.786546 0.429267 1.245124 4.809752 -5.894166 -2.093027 -0.021735 0.077649 -0.021173
-2.349050 89.166735 11.329830 -50.576587 -3.781176 -1.745889 -1.446722 0.349822 0.426470 -0.809861 0.195892 0.260664 -1.012188 0.245439 0.325396 -0.809861 0.195892 0.260664 -8.559524 24.281637 1.322731 -9.800253 1.037105 3.433479 -5.386375 -0.231440 -2.500515 -0.174632 6.381963 89.277200 16.372939 7.123155 6.433616 1.297593 -1.619195 -0.522148 6.126005 -0.404501 1.659137 -5.931175 0.589453 -89.408482 0.768355 8.685191 -0.518104 -0.385702 -3.970960 -1.663974 -1.097233 6.181277 1.724819 -3.039510 0.940037 -0.508748 0.371702 -2.523368 0.529207 0.012511 0.097472 0.121845 7.152464 9.143380 1.294644 4.781402 0.449649 1.240968 4.820615 -5.880462 -2.057377 -0.021550 0.080266 -0.023351
-2.293355 89.165457 11.302269 -50.524098 -3.790558 -1.734680 -1.449510 0.342455 0.428334 -0.810738 0.192005 0.261662 -1.013287 0.240584 0.326652 -0.810738 0.192005 0.261662 -8.551803 24.304060 1.299055 -9.785914 1.062454 3.405240 -5.393448 -0.236968 -2.473246 -0.048510 6.296121 89.441701 15.611722 6.972587 6.131044 1.304878 -1.624157 -0.526234 6.119970 -0.387664 1.648544 -5.972048 0.574060 -89.416732 0.769429 8.724924 -0.526786 -0.387579 -3.972752 -1.657683 -1.103870 6.152332 1.714246 -3.028326 0.951726 -0.519923 0.342985 -2.521501 0.517166 0.012184 0.094310 0.115655 7.077203 9.098648 1.263429 4.775816 0.470808 1.233735 4.832628 -5.867368 -2.020586 -0.020810 0.081913 -0.025703
-2.239592 89.164348 11.275131 -50.464055 -3.802457 -1.723947 -1.452897 0.338118 0.429874 -0.812140 0.189617 0.262716 -1.015039 0.237601 0.327974 -0.812140 0.189617 0.262716 -8.545144 24.321359 1.275022 -9.772594 1.081617 3.376869 -5.404066 -0.237887 -2.448969 0.065712 6.210692 89.605952 14.883079 6.804280 5.843471 1.301627 -1.632270 -0.544415 6.116371 -0.373547 1.638476 -6.011998 0.558084 -89.427276 0.765969 8.759094 -0.535368 -0.389872 -3.974294 -1.654856 -1.118443 6.131723 1.705713 -3.017357 0.956011 -0.535100 0.315304 -2.516624 0.509101 0.011521 0.090620 0.109145 6.995911 9.058746 1.233770 4.771051 0.487996 1.225537 4.842845 -5.851166 -1.981926 -0.019933 0.082201 -0.029097
